<svg id="svg" version="1.1" xmlns="http://www.w3.org/2000/svg" xmlns:xlink="http://www.w3.org/1999/xlink" width="1em" height="1.5em" viewBox="0, 0, 400,441.1764705882353">
            <g id="svgg">
                <path id="path0" d="M129.412 3.014 C 129.412 4.672,126.198 7.250,122.269 8.743 C 118.337 10.238,112.788 16.485,109.923 22.641 C 107.060 28.792,103.445 34.694,101.888 35.759 C 96.518 39.431,95.951 69.060,101.150 74.260 C 103.753 76.862,105.979 80.741,106.097 82.878 C 106.645 92.778,116.958 104.376,127.411 106.848 C 133.364 108.256,138.235 110.600,138.235 112.057 C 138.235 113.514,143.529 114.706,150.000 114.706 C 156.471 114.706,161.765 113.442,161.765 111.898 C 161.765 110.354,166.066 108.274,171.324 107.278 C 186.409 104.417,200.000 89.188,200.000 75.146 C 200.000 72.639,201.324 70.588,202.941 70.588 C 204.559 70.588,205.882 64.632,205.882 57.353 C 205.882 50.074,204.559 44.118,202.941 44.118 C 201.324 44.118,200.000 42.803,200.000 41.197 C 200.000 32.123,188.854 14.381,180.239 9.742 C 174.931 6.883,170.588 3.522,170.588 2.272 C 170.588 1.023,161.324 0.000,150.000 0.000 C 137.904 0.000,129.412 1.243,129.412 3.014 M250.759 2.348 C 228.199 9.408,208.535 44.738,213.142 69.932 C 215.635 83.570,228.325 105.882,233.587 105.882 C 235.748 105.882,239.163 107.868,241.176 110.294 C 255.019 126.973,302.240 111.087,309.763 87.221 C 326.377 34.517,294.496 -11.340,250.759 2.348 M51.629 99.744 C 50.716 101.221,44.351 103.343,37.485 104.459 C 0.285 110.506,-13.132 160.678,14.809 189.256 C 19.605 194.162,23.529 199.248,23.529 200.558 C 23.529 206.864,71.984 202.891,83.824 195.614 C 90.294 191.638,99.228 186.898,103.676 185.081 C 122.168 177.528,110.563 125.895,86.001 106.442 C 74.225 97.116,55.507 93.468,51.629 99.744 M330.979 113.782 C 320.483 119.461,314.706 124.936,314.706 129.202 C 314.706 130.935,313.382 132.353,311.765 132.353 C 310.147 132.353,308.824 134.356,308.824 136.805 C 308.824 139.253,307.317 143.668,305.476 146.616 C 301.275 153.343,304.562 177.671,310.469 183.578 C 312.799 185.909,314.706 188.969,314.706 190.380 C 314.706 194.659,340.708 205.882,350.621 205.882 C 360.937 205.882,385.294 195.220,385.294 190.704 C 385.294 189.115,387.279 185.830,389.706 183.403 C 392.132 180.977,394.118 176.439,394.118 173.319 C 394.118 170.200,395.441 167.647,397.059 167.647 C 398.676 167.647,400.000 163.015,400.000 157.353 C 400.000 151.691,398.820 147.059,397.378 147.059 C 395.935 147.059,393.925 143.750,392.910 139.706 C 391.895 135.662,389.766 132.353,388.179 132.353 C 386.592 132.353,385.294 130.935,385.294 129.202 C 385.294 114.042,349.354 103.838,330.979 113.782 M191.176 151.471 C 189.163 153.897,185.361 155.924,182.728 155.975 C 178.265 156.062,161.765 168.503,161.765 171.781 C 161.765 172.592,155.809 179.127,148.529 186.304 C 141.250 193.480,135.294 201.394,135.294 203.889 C 135.294 206.385,132.769 209.229,129.683 210.208 C 126.597 211.188,121.148 218.209,117.575 225.811 C 114.001 233.413,108.585 241.379,105.539 243.513 C 102.492 245.647,100.000 249.366,100.000 251.778 C 100.000 254.190,96.691 259.230,92.647 262.978 C 88.603 266.726,85.294 271.109,85.294 272.717 C 85.294 274.326,80.675 281.454,75.029 288.557 C 69.382 295.659,64.747 302.794,64.727 304.412 C 64.707 306.029,60.340 314.632,55.023 323.529 C 34.893 357.211,32.389 415.808,50.310 433.824 C 58.075 441.630,107.300 435.185,118.380 424.911 C 122.689 420.916,128.091 417.647,130.384 417.647 C 132.678 417.647,139.388 413.220,145.296 407.809 C 151.204 402.397,159.642 396.113,164.048 393.843 C 168.454 391.573,172.721 388.898,173.529 387.900 C 182.989 376.222,221.446 367.560,234.269 374.219 C 265.986 390.691,288.235 406.986,288.235 413.741 C 288.235 415.201,291.188 416.618,294.796 416.889 C 298.405 417.161,302.814 419.376,304.595 421.812 C 310.672 430.122,357.556 440.667,372.148 437.005 C 389.761 432.585,401.292 384.766,390.090 362.597 C 386.644 355.775,379.326 341.216,373.830 330.244 C 368.333 319.271,362.046 309.236,359.859 307.942 C 357.672 306.648,355.882 303.658,355.882 301.298 C 355.882 298.937,351.912 292.850,347.059 287.772 C 342.206 282.694,338.235 276.336,338.235 273.643 C 338.235 270.951,334.265 264.944,329.412 260.294 C 324.559 255.645,320.588 250.810,320.588 249.551 C 320.588 248.292,316.618 243.200,311.765 238.235 C 306.912 233.271,302.941 226.776,302.941 223.802 C 302.941 220.829,298.309 214.439,292.647 209.603 C 286.985 204.766,282.353 199.547,282.353 198.005 C 282.353 196.462,278.051 190.991,272.794 185.848 C 267.537 180.704,259.265 172.487,254.412 167.588 C 236.399 149.403,200.488 140.250,191.176 151.471 " 
                    stroke="none" 
                    fill="#2C5974" 
                    fill-rule="evenodd">
                </path>
            </g>
          </svg>